<svg width="23" height="26" viewBox="0 0 23 26"  xmlns="http://www.w3.org/2000/svg">
<path d="M2.99589 23.1835C0.14286 20.2397 0.196034 15.4926 3.06356 12.5595L13.3058 2.08285C15.4696 -0.130627 18.987 -0.130823 21.151 2.08285C23.2941 4.27494 23.2967 7.8118 21.151 10.0065L12.2228 19.1301C10.7651 20.6212 8.38334 20.6004 6.95028 19.0814C5.56967 17.618 5.61395 15.2985 7.02118 13.8591L14.0399 6.68939C14.3417 6.38109 14.8364 6.37582 15.1447 6.67762L16.2609 7.77035C16.5693 8.0722 16.5745 8.56683 16.2727 8.87513L9.25473 16.0441C9.0139 16.2905 8.99906 16.6998 9.22308 16.9373C9.43656 17.1636 9.77216 17.1673 9.9891 16.9453L18.9173 7.82177C19.8749 6.84218 19.8749 5.2473 18.9167 4.26718C17.9798 3.30883 16.4774 3.30834 15.5401 4.26718L5.29784 14.7437C3.60043 16.4801 3.57426 19.2906 5.23969 21.009C6.90033 22.7225 9.58466 22.7247 11.2484 21.023L19.6497 12.4293C19.9514 12.1207 20.446 12.1152 20.7545 12.4168L21.8716 13.5088C22.1801 13.8104 22.1857 14.305 21.8841 14.6136L13.4827 23.2072C10.5737 26.1827 5.8683 26.1474 2.99589 23.1835Z" fill="white"/>
</svg>
