<svg width="553" height="295" viewBox="0 0 553 295" fill="none" xmlns="http://www.w3.org/2000/svg">
    <g opacity="0.12">
    <path d="M-71.0793 142.287C-66.0339 129.847 -60.9885 117.406 -55.9432 104.966C-44.2324 112.522 -33.5094 120.971 -22.8646 129.612C5.20191 152.413 30.2777 177.341 50.5828 205.695C65.2002 226.153 79.667 246.673 89.9497 269.174C98.078 286.798 105.381 304.606 110.241 323.189C116.779 348.129 121.071 373.362 120.27 399.109C119.674 419.721 116.915 440.109 110.949 460.068C106.817 473.651 101.42 486.96 94.389 499.664C87.7435 511.728 79.8771 523.097 70.3831 533.539C62.0724 542.607 52.9928 550.793 41.8512 557.27C40.3783 558.123 38.8663 559.072 37.3543 560.022C20.5167 554.918 3.679 549.815 -13.1586 544.711C-14.748 537.515 -16.711 530.315 -17.8876 523.027C-20.513 506.963 -24.1868 491.013 -28.9483 475.275C-38.0544 445.551 -52.5827 418.081 -75.1329 394.028C-94.4569 373.443 -116.867 356.146 -143.425 342.898C-145.944 341.701 -148.581 340.794 -151.14 339.693C-147.581 330.917 -144.022 322.142 -140.463 313.366C-127.127 317.841 -114.679 323.889 -102.348 330.225C-84.4985 339.317 -67.1458 349.017 -50.9431 360.317C-35.5151 371.058 -19.6686 381.384 -4.16246 391.931C1.81815 396.018 8.37964 398.982 15.6726 400.759C24.0082 402.744 31.3203 401.387 37.4698 396.104C39.5569 394.354 41.3485 392.406 42.7332 390.227C47.9591 382.281 51.7021 373.669 52.1665 364.497C52.7599 354.389 52.9796 344.276 52.6751 334.221C52.1783 320.318 48.274 306.789 43.505 293.54C36.8554 274.739 28.7778 256.372 17.727 239.161C-1.24417 209.37 -24.5617 182.269 -52.1922 158.083C-58.0713 152.511 -64.6701 147.479 -71.0793 142.287Z" fill="#E6E9F0"/>
    <path d="M115.56 583.618C103.405 579.934 91.2512 576.25 79.0969 572.566C80.2411 571.288 81.2738 569.977 82.3789 568.796C97.6605 552.419 109.497 534.348 119.187 515.086C125.622 502.308 130.645 488.995 134.738 475.508C137.964 464.465 140.555 453.447 142.253 442.158C148.666 399.486 145.241 357.297 132.837 315.635C125.295 290.391 114.896 266.014 101.413 242.76C85.7189 215.695 67.386 189.887 45.544 165.94C18.0575 135.842 -13.5698 109.471 -48.1212 85.6783C-44.9923 77.9633 -41.8634 70.2484 -38.7345 62.5334C-34.231 65.6311 -29.7664 68.8253 -25.2238 71.8266C0.443711 88.8113 23.5997 108.284 45.4277 128.869C61.1202 143.589 74.7706 159.638 88.1923 175.943C103.185 194.241 116.482 213.323 128.004 233.385C146.272 264.911 159.24 298.081 167.55 332.546C176.377 369.441 178.323 406.634 173.721 444.224C171.139 465.1 165.915 485.391 158.828 505.335C154.38 517.847 149.19 530.027 142.438 541.734C137.921 549.786 133.403 557.838 128.367 565.625C124.48 571.811 119.853 577.663 115.56 583.618Z" fill="#E6E9F0"/>
    <path d="M-32.9852 48.3568C-30.482 42.1848 -27.9398 35.9164 -25.4367 29.7445C-18.5307 34.3284 -11.7753 38.975 -4.83028 43.4625C22.4316 61.1471 47.2211 81.2227 70.1857 103.019C85.6553 117.671 100.745 132.641 114.056 148.912C135.043 174.658 154.295 201.285 169.626 229.864C180.802 250.47 189.988 271.664 197.555 293.45C209.59 328.611 216.494 364.382 217.141 401.072C217.826 437.666 213.214 473.737 201.777 509.039C195.958 527.092 188.801 544.74 179.524 561.746C173.069 573.651 165.871 585.222 157.933 596.461C149.458 593.892 141.095 591.357 132.62 588.788C133.19 588.311 133.759 587.834 134.217 587.323C147.81 569.243 158.916 550.193 167.615 529.98C173.425 516.581 178.193 502.973 181.995 488.965C186.76 471.35 190.555 453.657 191.963 435.675C193.771 412.074 193.299 388.54 190.473 364.942C185.043 319.979 170.002 277.41 148.318 236.401C139.319 219.379 128.362 203.171 116.915 187.248C94.0915 155.531 67.7866 126.225 36.7169 100.022C15.8792 82.552 -5.64514 65.8484 -28.5757 50.4514C-30.0195 49.6889 -31.5414 49.1193 -32.9852 48.3568Z" fill="#E6E9F0"/>
    <path d="M190.604 606.364C195.797 598.192 201.062 590.15 206.032 581.91C212.654 571.138 218.2 559.933 222.592 548.486C228.711 532.472 235.65 516.599 239.053 499.871C241.024 490.072 243.965 480.351 245.712 470.485C248.647 454.914 250.014 439.193 250.411 423.394C250.948 399.841 249.8 376.427 246.221 353.142C242.721 329.665 236.632 306.703 228.931 284.01C220.307 258.654 209.312 234.205 195.762 210.497C181.126 184.836 164.192 160.211 145.105 136.882C123.421 110.384 98.707 86.1077 72.2856 63.2633C50.6124 44.4571 27.1925 27.1791 2.73997 11.2124C1.55834 10.421 0.337574 9.72613 -0.693441 8.87217C-1.35665 8.34627 -1.75196 7.46845 -2.26455 6.87991C-2.14722 6.5906 -1.9575 6.43147 -1.84016 6.14216C0.0612751 6.39362 1.8904 6.51488 3.71364 6.95922C10.0421 8.33595 16.4821 9.7465 22.7714 11.2197C26.457 12.0119 29.9079 13.3827 32.8562 15.6842C51.3597 29.956 70.6613 43.4951 87.7585 59.0733C107.831 77.5028 127.793 95.8984 145.137 116.425C161.897 136.232 177.261 156.7 191.225 178.151C215.115 214.955 233.589 253.692 246.083 294.515C260.518 341.665 266.007 389.57 262.328 438.16C261.168 452.753 259.896 467.312 256.684 481.715C254.406 491.963 251.683 502.074 249.032 512.317C245.172 527.39 239.489 542.02 233.249 556.481C225.718 574.124 216.52 590.936 205.761 607.276C205.069 608.366 204.488 609.489 203.796 610.579C199.525 609.068 195.065 607.716 190.604 606.364Z" fill="#E6E9F0"/>
    <path d="M-84.3773 175.075C-76.4928 183.421 -68.2287 191.448 -60.8352 200.078C-49.4523 213.383 -39.4308 227.575 -32.6114 243.178C-29.5941 249.94 -27.7035 257.011 -25.4001 263.99C-23.3805 270.125 -23.3073 276.428 -24.1653 282.557C-25.7406 293.234 -32.4378 299.867 -45.1256 300.895C-52.3478 301.413 -59.6248 300.832 -66.6614 299.349C-77.1606 297.141 -87.431 294.678 -97.7738 292.084C-107.336 289.727 -116.82 287.177 -126.454 284.69C-127.235 284.454 -127.982 284.444 -128.802 284.304C-113.906 247.884 -99.1223 211.431 -84.3773 175.075Z" fill="#E6E9F0"/>
    <path d="M220.378 615.388C223.075 610.899 225.811 606.314 228.396 601.791C233.958 591.782 239.632 581.806 244.676 571.531C249.217 562.187 253.2 552.673 256.922 543.189C262.448 528.945 267.043 514.527 270.596 499.902C280.745 457.279 283.538 414.267 279.836 370.911C277.996 348.587 273.273 326.58 268.025 304.631C263.439 285.373 256.639 266.635 249.013 248.079C229.61 200.831 203.009 156.815 169.062 116.096C159.184 104.33 148.474 93.0702 138.216 81.6226C137.08 80.4117 136.244 79.0756 134.89 77.474C139.364 76.0144 143.485 75.4227 147.568 74.9275C149.403 74.7256 150.651 75.9703 151.637 77.2438C155.409 81.5276 159.109 85.6812 162.881 89.965C176.498 105.788 190.417 121.486 202.371 138.321C233.422 182.169 257.812 228.546 273.55 278.041C281.188 302.123 286.802 326.566 290.351 351.466C292.836 369.112 294.049 386.807 294.03 404.452C294.055 430.017 292.474 455.528 287.497 480.767C285.28 491.791 282.316 502.804 279.502 513.755C274.636 532.855 267.277 551.309 259.137 569.525C251.931 585.751 243.091 601.372 233.437 616.531C232.974 617.365 232.215 618.001 231.567 618.672C227.849 617.653 224.057 616.503 220.378 615.388Z" fill="#E6E9F0"/>
    <path d="M337.794 650.977C340.235 646.194 342.787 641.445 345.117 636.628C347.831 631.17 350.506 625.808 353.109 620.316C361.304 603.199 368.94 585.913 375.016 568.154C379.867 554.031 383.827 539.637 387.747 525.339C397.265 490.755 400.889 455.576 402.35 420.174C403.536 393.786 401.615 367.647 398.613 341.397C395.865 317.606 390.418 294.297 384.748 270.92C383.67 266.478 382.742 261.973 382.299 257.507C379.767 236.273 374.987 215.332 370.581 194.395C370.098 192.191 369.653 189.891 369.282 187.72C369.182 187.04 369.344 186.331 369.395 185.589C369.657 185.56 369.958 185.435 370.22 185.406C370.872 186.578 371.523 187.75 372.024 188.985C377.484 203.31 383.356 217.543 388.364 232.056C399.053 263.127 407.003 294.775 411.657 326.833C417.987 369.577 419.716 412.551 415.166 455.572C412.913 476.872 409.762 498.225 404.749 519.23C400.99 534.984 396.41 550.598 391.123 566.105C386.271 580.229 381.381 594.449 375.191 608.167C369.622 620.665 363.383 632.96 357.295 645.193C355.625 648.693 353.659 651.996 351.917 655.366C347.273 653.85 342.589 652.431 337.794 650.977Z" fill="#E6E9F0"/>
    <path d="M250.15 624.413C258.034 612.075 265.583 599.635 271.315 586.428C277.907 571.1 284.723 555.839 290.534 540.274C294.619 529.275 297.589 517.938 300.52 506.698C305.874 485.471 309.063 464.022 311.06 442.427C312.167 430.742 312.121 418.816 312.147 407.02C312.237 391.67 312.064 376.349 310.096 361.133C305.04 322.348 296.086 284.223 281.13 247.31C275.942 234.476 271.357 221.39 264.742 208.989C257.909 196.197 250.775 183.531 243.602 170.96C241.575 167.314 240.295 163.677 240.443 159.607C240.631 155.44 239.848 151.196 239.661 147.025C239.606 145.925 239.774 144.893 239.831 143.827C240.132 143.702 240.394 143.673 240.696 143.548C241.537 144.561 242.49 145.608 243.292 146.717C251.085 158.068 257.974 169.794 264.11 181.833C271.583 196.443 279.318 211.025 286.037 225.948C297.889 252.607 306.813 280.002 312.809 308.134C315.882 322.169 319.066 336.237 320.829 350.416C324.354 378.774 325.486 407.165 323.551 435.709C322.473 451.951 320.838 468.024 317.708 484.077C315.194 497.068 312.123 509.89 308.566 522.673C303.852 539.546 297.872 556.143 290.666 572.368C286.068 582.778 280.952 592.923 275.797 603.164C272.077 610.483 267.649 617.696 263.595 624.914C263.053 625.941 262.216 626.77 261.451 627.73C257.509 626.643 253.83 625.528 250.15 624.413Z" fill="#E6E9F0"/>
    <path d="M305.123 641.075C312.165 627.724 319.057 614.435 326.211 601.118C334.371 585.939 340.523 570.153 345.783 554.095C350.411 539.904 354.705 525.612 358.068 511.145C361.1 498.42 362.644 485.351 364.857 472.485C370.711 437.982 371.374 403.313 368.673 368.6C366.587 341.327 362.029 314.281 355.525 287.402C351.906 272.552 349.938 257.337 347.256 242.337C345.451 232.586 343.758 222.868 342.104 213.053C341.865 211.789 341.587 210.622 341.61 209.33C341.655 208.91 342.414 208.274 343.017 208.023C343.318 207.898 344.243 208.395 344.46 208.786C345.151 209.862 345.652 211.096 346.041 212.297C351.895 229.665 358.121 247.039 363.634 264.628C371.617 290.331 376.638 316.543 380.086 342.928C384.627 377.117 384.796 411.28 382.048 445.534C380.482 466.068 376.641 486.345 372.353 506.487C369.986 517.573 367.434 528.496 364.621 539.447C363.016 545.566 361.187 551.617 358.802 557.5C352.734 572.771 346.593 587.911 340.079 603.047C336.649 610.887 332.661 618.558 328.674 626.23C325.384 632.488 321.832 638.776 318.431 645C314.043 643.778 309.583 642.427 305.123 641.075Z" fill="#E6E9F0"/>
    <path d="M276.911 632.524C279.955 627.491 283.109 622.491 285.929 617.389C296.009 599.328 305.164 580.769 312.049 561.631C316.38 549.407 320.377 537.082 324.151 524.69C326.734 516.16 328.983 507.528 330.897 498.795C338.597 463.444 341.519 427.835 340.337 391.849C339.353 359.388 334.135 327.485 326.748 295.682C323.347 281.223 319.27 266.884 313.916 252.916C309.887 242.165 307.057 231.236 305.576 220.067C304.517 212.49 302.894 205.068 301.573 197.52C301.301 196.03 301.402 194.544 301.248 192.765C303.562 192.925 303.65 194.251 304.157 195.163C307.787 203.193 311.679 211.196 315.046 219.255C329.184 253.862 340.132 289.235 346.539 325.613C353.152 363.029 354.83 400.573 352.057 438.285C350.856 455.139 349.281 471.989 345.766 488.683C343.029 501.606 339.807 514.491 336.624 527.279C331.388 548.217 322.879 568.271 314.187 588.161C308.377 601.56 301.379 614.492 293.824 627.254C292.126 630.205 290.54 633.19 288.843 636.141C284.828 634.924 280.814 633.707 276.911 632.524Z" fill="#E6E9F0"/>
    </g>
</svg>
